<svg width="40" height="40" viewBox="0 0 40 40" fill="none" xmlns="http://www.w3.org/2000/svg">
<rect width="40" height="40" rx="20" fill="#364152"/>
<path d="M28.5816 32.0019H21.8651C21.5379 32.0019 21.2725 31.6636 21.2725 31.2464V17.646C21.2725 17.4183 21.353 17.2027 21.4913 17.0597C21.6296 16.9157 21.8114 16.8603 21.9859 16.9066L28.874 18.7461C29.5188 18.9284 29.9644 19.6357 29.9644 20.4689V30.239C29.9644 31.2112 29.3441 32.0019 28.5816 32.0019ZM22.4577 30.4908H28.5816C28.6907 30.4908 28.7792 30.378 28.7792 30.239V20.4689C28.7792 20.35 28.7159 20.2493 28.6251 20.2231L22.4577 18.5759V30.4908Z" fill="#33CC66"/>
<path d="M26.211 22.9291H25.0257C24.6986 22.9291 24.4331 22.5905 24.4331 22.1735C24.4331 21.7565 24.6986 21.418 25.0257 21.418H26.211C26.5382 21.418 26.8036 21.7565 26.8036 22.1735C26.8036 22.5905 26.5382 22.9291 26.211 22.9291Z" fill="#33CC66"/>
<path d="M26.211 25.9525H25.0257C24.6986 25.9525 24.4331 25.614 24.4331 25.197C24.4331 24.7799 24.6986 24.4414 25.0257 24.4414H26.211C26.5382 24.4414 26.8036 24.7798 26.8036 25.197C26.8036 25.614 26.5382 25.9525 26.211 25.9525Z" fill="#33CC66"/>
<path d="M26.211 28.9761H25.0257C24.6986 28.9761 24.4331 28.6376 24.4331 28.2205C24.4331 27.8034 24.6986 27.4648 25.0257 27.4648H26.211C26.5382 27.4648 26.8036 27.8034 26.8036 28.2204C26.8036 28.6376 26.5382 28.9761 26.211 28.9761Z" fill="#33CC66"/>
<path d="M18.7041 31.7456H15.1483C14.8212 31.7456 14.5557 31.407 14.5557 30.99V26.7084C14.5557 25.7362 15.176 24.9453 15.9385 24.9453H17.914C18.6765 24.9453 19.2968 25.7362 19.2968 26.7084V30.99C19.2968 31.407 19.0313 31.7456 18.7042 31.7456H18.7041ZM15.741 30.2345H18.1115V26.7084C18.1115 26.5693 18.023 26.4566 17.914 26.4566H15.9385C15.8294 26.4566 15.741 26.5693 15.741 26.7084V30.2345Z" fill="#33CC66"/>
<path d="M15.5435 13.8627H14.3582C14.0311 13.8627 13.7656 13.5241 13.7656 13.1071C13.7656 12.6901 14.0311 12.3516 14.3582 12.3516H15.5435C15.8707 12.3516 16.1361 12.6901 16.1361 13.1071C16.1361 13.5241 15.8707 13.8627 15.5435 13.8627Z" fill="#33CC66"/>
<path d="M19.4942 13.8627H18.3089C17.9817 13.8627 17.7163 13.5241 17.7163 13.1071C17.7163 12.6901 17.9817 12.3516 18.3089 12.3516H19.4942C19.8213 12.3516 20.0868 12.6901 20.0868 13.1071C20.0868 13.5241 19.8213 13.8627 19.4942 13.8627Z" fill="#33CC66"/>
<path d="M15.5435 16.8823H14.3582C14.0311 16.8823 13.7656 16.5438 13.7656 16.1268C13.7656 15.7096 14.0311 15.3712 14.3582 15.3712L15.5435 15.3711C15.8707 15.3711 16.1361 15.7096 16.1361 16.1268C16.1361 16.5438 15.8707 16.8823 15.5435 16.8823Z" fill="#33CC66"/>
<path d="M19.4942 16.8823H18.3089C17.9817 16.8823 17.7163 16.5438 17.7163 16.1268C17.7163 15.7096 17.9817 15.3712 18.3089 15.3712L19.4942 15.3711C19.8213 15.3711 20.0868 15.7096 20.0868 16.1268C20.0868 16.5438 19.8213 16.8823 19.4942 16.8823Z" fill="#33CC66"/>
<path d="M15.5435 19.9058H14.3582C14.0311 19.9058 13.7656 19.5673 13.7656 19.1501C13.7656 18.7331 14.0311 18.3945 14.3582 18.3945H15.5435C15.8707 18.3945 16.1361 18.7331 16.1361 19.1501C16.1361 19.5673 15.8707 19.9056 15.5435 19.9056V19.9058Z" fill="#33CC66"/>
<path d="M19.4942 19.9058H18.3089C17.9817 19.9058 17.7163 19.5673 17.7163 19.1501C17.7163 18.7331 17.9817 18.3945 18.3089 18.3945H19.4942C19.8213 18.3945 20.0868 18.7331 20.0868 19.1501C20.0868 19.5673 19.8213 19.9056 19.4942 19.9056V19.9058Z" fill="#33CC66"/>
<path d="M15.5435 22.9291H14.3582C14.0311 22.9291 13.7656 22.5905 13.7656 22.1735C13.7656 21.7565 14.0311 21.418 14.3582 21.418H15.5435C15.8707 21.418 16.1361 21.7565 16.1361 22.1735C16.1361 22.5905 15.8707 22.9291 15.5435 22.9291Z" fill="#33CC66"/>
<path d="M19.4942 22.9291H18.3089C17.9817 22.9291 17.7163 22.5905 17.7163 22.1735C17.7163 21.7565 17.9817 21.418 18.3089 21.418H19.4942C19.8213 21.418 20.0868 21.7565 20.0868 22.1735C20.0868 22.5905 19.8213 22.9291 19.4942 22.9291Z" fill="#33CC66"/>
<path d="M21.8651 31.9976H12.3828C11.6203 31.9976 11 31.2068 11 30.2347V9.76445C11 9.24469 11.1786 8.755 11.4891 8.41857C11.7997 8.08199 12.209 7.93807 12.6096 8.02465L21.293 9.70209C21.9717 9.84616 22.4577 10.5775 22.4577 11.4429V31.242C22.4577 31.6591 22.1922 31.9976 21.8651 31.9976ZM12.3836 9.51264C12.3196 9.51264 12.2769 9.54786 12.2557 9.57111C12.2296 9.60034 12.1852 9.6627 12.1852 9.76445V30.2347C12.1852 30.3736 12.2738 30.4865 12.3828 30.4865H21.2724V11.4429C21.2724 11.319 21.2029 11.2142 21.1073 11.1941L12.4239 9.51766C12.4097 9.51473 12.3963 9.51264 12.3836 9.51264Z" fill="#0083F5"/>
</svg>
